<?xml version="1.0" encoding="utf-8"?>
<!-- Generator: Adobe Illustrator 15.0.0, SVG Export Plug-In . SVG Version: 6.00 Build 0)  -->
<!DOCTYPE svg PUBLIC "-//W3C//DTD SVG 1.1//EN" "http://www.w3.org/Graphics/SVG/1.1/DTD/svg11.dtd">
<svg version="1.1" id="图层_1" xmlns="http://www.w3.org/2000/svg" xmlns:xlink="http://www.w3.org/1999/xlink" x="0px" y="0px"
	 width="400px" height="386px" viewBox="0 0 400 386" enable-background="new 0 0 400 386" xml:space="preserve">
<g>
	<path d="M395.2,170.6c-8-48-3.2-87.2-17.6-97.6c-39.2-29.6-40,68.8-71.2,56c-12-4.8-10.4-12-10.4-65.6c0-12.8,0.801-52-7.199-58.4
		c-20-16-34.4,18.4-52,53.6c-10.4,20-24.801,44-32,48.8c-21.601,13.6-5.601-60-30.4-79.2c-24.8-18.4-62.4,92-73.6,93.6
		c-10.4,1.6,1.6-63.2-17.601-63.2c-21.6,0-40.8,44-52,81.6c-5.6,18.4-12.8,37.6-19.2,55.2c0,0-1.867,7.004-2.514,9.41
		c-5.321,18.17-8.686,39.184-8.686,54.59c0,10.399-0.801,56,56,88.8c3.996,2.284,8.243,4.476,12.685,6.573
		c33.445,18.015,75.771,29.229,122.215,30.127l-0.038-0.017c1.206,0.052,2.386,0.091,3.538,0.116c2.925,0,14.011-0.189,29.609-1.975
		h0.001c0.023,0.248,0.108,0.232,0.405-0.047C265.152,378.361,334.177,363.313,372,314.6c13.601-20,21.601-42.399,24.801-64.8
		C400.801,222.6,399.2,195.4,395.2,170.6z M183.2,367.4c-91.458,0-165.6-49.07-165.6-109.601s74.142-109.6,165.6-109.6
		s165.601,49.069,165.601,109.6S274.658,367.4,183.2,367.4z"/>
</g>
<g>
	<g>
		<circle fill="none" cx="109.6" cy="297.8" r="26.4"/>
		<circle fill="none" cx="134.4" cy="259.4" r="10.4"/>
		<path d="M140.82,186.783c-31.2,8.001-46.827,19.368-58.827,30.568s-22.226,23.257-23.826,46.457C53.5,342.833,156,344.2,156,344.2
			s102.3,1.3,109.5-74.7C271.1,205.5,199.959,173.833,140.82,186.783z M109.6,324.2c-14.581,0-26.4-11.819-26.4-26.4
			c0-14.58,11.819-26.399,26.4-26.399C124.18,271.4,136,283.22,136,297.8C136,312.381,124.18,324.2,109.6,324.2z M134.4,269.8
			c-5.744,0-10.4-4.656-10.4-10.399c0-5.744,4.656-10.4,10.4-10.4s10.4,4.656,10.4,10.4C144.801,265.144,140.144,269.8,134.4,269.8z
			"/>
	</g>
</g>
</svg>
