<svg width="384" height="310" xmlns="http://www.w3.org/2000/svg"><path d="M343.37 275.112c24.333-17.635 39.886-43.726 39.886-72.71 0-53.132-51.685-96.198-115.439-96.198-63.754 0-115.435 43.066-115.435 96.198 0 53.129 51.681 96.194 115.435 96.194 13.174 0 25.89-1.88 37.68-5.272a11.59 11.59 0 0 1 3.397-.505c2.212 0 4.23.673 6.126 1.774l25.272 14.587c.706.408 1.387.719 2.224.719a3.847 3.847 0 0 0 3.847-3.852c0-.946-.378-1.9-.618-2.808-.147-.543-3.263-12.157-5.201-19.406-.223-.811-.404-1.598-.404-2.451a7.687 7.687 0 0 1 3.23-6.27m-114.036-88.1c-8.493 0-15.385-6.89-15.385-15.393 0-8.502 6.892-15.394 15.385-15.394 8.507 0 15.394 6.892 15.394 15.394 0 8.502-6.887 15.394-15.394 15.394m76.961 0c-8.498 0-15.39-6.892-15.39-15.394 0-8.502 6.892-15.394 15.39-15.394 8.503 0 15.39 6.892 15.39 15.394 0 8.502-6.887 15.394-15.39 15.394zM138.524 0c69.11 0 126.385 42.174 136.817 97.32a153.735 153.735 0 0 0-7.523-.201c-69.775 0-126.338 47.14-126.338 105.28 0 9.806 1.644 19.292 4.655 28.295-2.523.113-5.055.18-7.611.18-15.806 0-31.065-2.262-45.215-6.328a13.889 13.889 0 0 0-4.074-.61c-2.658 0-5.071.812-7.354 2.128l-30.326 17.51c-.845.487-1.669.861-2.67.861a4.614 4.614 0 0 1-4.617-4.617c0-1.143.455-2.283.745-3.376l6.24-23.282c.265-.98.487-1.922.487-2.944a9.23 9.23 0 0 0-3.876-7.526C18.657 181.53 0 150.222 0 115.44 0 51.685 62.017 0 138.524 0zM92.346 96.968c10.206 0 18.472-8.267 18.472-18.472 0-10.201-8.266-18.468-18.472-18.468-10.196 0-18.467 8.267-18.467 18.468 0 10.205 8.27 18.472 18.467 18.472zm92.355 0c10.201 0 18.472-8.267 18.472-18.472 0-10.201-8.27-18.468-18.472-18.468-10.205 0-18.471 8.267-18.471 18.468 0 10.205 8.266 18.472 18.471 18.472z" fill="#FFF" fill-rule="evenodd"/></svg>